<?xml version="1.0" encoding="UTF-8"?>
<svg id="Layer_1" data-name="Layer 1" xmlns="http://www.w3.org/2000/svg" viewBox="0 0 275.39 273.6">
  <defs>
    <style>
      .cls-1 {
        fill: #1a1a1a;
        stroke-width: 0px;
      }
    </style>
  </defs>
  <path id="Blue" class="cls-1" d="m15.53-.49C7.16-.49.39,6.29.39,14.66v244.2c0,8.37,6.77,15.14,15.14,15.14h131.47v-106.27h-35.78v-41.44h35.78v-30.55c0-35.45,21.66-54.75,53.29-54.75,15.15,0,28.16,1.13,31.95,1.63v37.04h-21.93c-17.2,0-20.54,8.18-20.54,20.17v26.46h41.04l-5.36,41.44h-35.68v106.27h69.96c8.36,0,15.14-6.78,15.14-15.14V14.66c0-8.37-6.78-15.14-15.14-15.14H15.53Z"/>
</svg>