<?xml version="1.0" encoding="UTF-8"?>
<svg id="Layer_1" data-name="Layer 1" xmlns="http://www.w3.org/2000/svg" viewBox="0 0 232.57 232.01">
  <defs>
    <style>
      .cls-1 {
        fill: #1a1a1a;
        stroke-width: 0px;
      }
    </style>
  </defs>
  <path id="rect3687" class="cls-1" d="m67.32,0C30.19,0,0,30.21,0,67.33v97.36c0,37.13,30.19,67.32,67.32,67.32h97.94c37.13,0,67.32-30.19,67.32-67.32v-97.36C232.57,30.21,202.38,0,165.26,0h-97.94Zm0,19.95h97.94c26.42,0,47.39,20.97,47.39,47.39v97.36c0,26.42-20.97,47.37-47.39,47.37h-97.94c-26.42,0-47.37-20.95-47.37-47.37v-97.36c0-26.42,20.95-47.39,47.37-47.39Zm111.39,19.94c-7.7,0-13.95,6.24-13.95,13.95s6.24,13.95,13.95,13.95,13.95-6.24,13.95-13.95-6.24-13.95-13.95-13.95Zm-62.42,16.38c-32.87,0-59.73,26.86-59.73,59.73s26.86,59.73,59.73,59.73,59.75-26.86,59.75-59.73-26.88-59.73-59.75-59.73Zm0,19.95c22.1,0,39.81,17.69,39.81,39.79s-17.71,39.79-39.81,39.79-39.79-17.69-39.79-39.79,17.69-39.79,39.79-39.79Z"/>
</svg>