<?xml version="1.0" encoding="UTF-8"?>
<svg id="Layer_1" data-name="Layer 1" xmlns="http://www.w3.org/2000/svg" viewBox="0 0 245 235">
  <defs>
    <style>
      .cls-1 {
        fill: #1a1a1a;
        stroke-width: 0px;
      }
    </style>
  </defs>
  <path id="path22" class="cls-1" d="m245,41.4c-9.03,4.01-18.73,6.71-28.92,7.93,10.39-6.23,18.38-16.1,22.14-27.86-9.73,5.77-20.5,9.96-31.98,12.22-9.18-9.78-22.27-15.9-36.75-15.9-27.81,0-50.35,22.54-50.35,50.35,0,3.95.44,7.79,1.3,11.48-41.85-2.1-78.96-22.15-103.79-52.61-4.33,7.43-6.82,16.08-6.82,25.31,0,17.47,8.89,32.88,22.4,41.92-8.25-.26-16.02-2.52-22.81-6.3,0,.21,0,.42,0,.63,0,24.4,17.36,44.75,40.39,49.38-4.22,1.15-8.67,1.76-13.26,1.76-3.25,0-6.4-.31-9.48-.9,6.41,20.01,25.01,34.57,47.05,34.97-17.25,13.51-38.96,21.55-62.55,21.55-4.06,0-8.07-.24-12.02-.7,22.29,14.29,48.76,22.62,77.2,22.62,92.62,0,143.27-76.73,143.27-143.28,0-2.18-.05-4.35-.14-6.51,9.83-7.11,18.37-15.97,25.13-26.07"/>
</svg>